<svg xmlns="http://www.w3.org/2000/svg" xmlns:xlink="http://www.w3.org/1999/xlink" contentStyleType="text/css" data-diagram-type="SEQUENCE" height="2023.5px" preserveAspectRatio="none" style="width:2023px;height:2023px;background:#FFFFFF;" version="1.1" viewBox="0 0 2023 2023" width="2023.5px" zoomAndPan="magnify"><?plantuml 1.2026.6?><defs/><g><g class="title" data-source-line="896"><text fill="#000000" font-family="Verdana" font-size="33" font-weight="700" lengthAdjust="spacing" textLength="871.2451" x="574.7329" y="55.6772">BuddBull &#8212; Sequence: Real-time Chat Message</text></g><g class="participant-lifeline" data-entity-uid="part1" data-qualified-name="User" data-source-line="900" id="part1-lifeline"><g><title>User</title><rect fill="#000000" fill-opacity="0.00000" height="1702.4641" width="12" x="37.3916" y="196.1279"/><line style="stroke:#000000;stroke-width:1.5;stroke-dasharray:7.5,7.5;" x1="42" x2="42" y1="196.1279" y2="1898.592"/></g></g><g class="participant-lifeline" data-entity-uid="part2" data-qualified-name="UI" data-source-line="901" id="part2-lifeline"><g><title>ChatScreen</title><rect fill="#000000" fill-opacity="0.00000" height="1702.4641" width="12" x="260.4697" y="196.1279"/><line style="stroke:#000000;stroke-width:1.5;stroke-dasharray:7.5,7.5;" x1="265.7666" x2="265.7666" y1="196.1279" y2="1898.592"/></g></g><g class="participant-lifeline" data-entity-uid="part3" data-qualified-name="Notifier" data-source-line="902" id="part3-lifeline"><g><title>MessagesNotifier</title><rect fill="#000000" fill-opacity="0.00000" height="1702.4641" width="12" x="517.949" y="196.1279"/><line style="stroke:#000000;stroke-width:1.5;stroke-dasharray:7.5,7.5;" x1="523.2759" x2="523.2759" y1="196.1279" y2="1898.592"/></g></g><g class="participant-lifeline" data-entity-uid="part4" data-qualified-name="Sock" data-source-line="903" id="part4-lifeline"><g><title>SocketService</title><rect fill="#000000" fill-opacity="0.00000" height="1702.4641" width="12" x="851.6287" y="196.1279"/><line style="stroke:#000000;stroke-width:1.5;stroke-dasharray:7.5,7.5;" x1="856.7673" x2="856.7673" y1="196.1279" y2="1898.592"/></g></g><g class="participant-lifeline" data-entity-uid="part5" data-qualified-name="SM" data-source-line="904" id="part5-lifeline"><g><title>socket.manager</title><rect fill="#000000" fill-opacity="0.00000" height="1702.4641" width="12" x="1083.1428" y="196.1279"/><line style="stroke:#000000;stroke-width:1.5;stroke-dasharray:7.5,7.5;" x1="1088.6558" x2="1088.6558" y1="196.1279" y2="1898.592"/></g></g><g class="participant-lifeline" data-entity-uid="part6" data-qualified-name="Svc" data-source-line="905" id="part6-lifeline"><g><title>chat.service</title><rect fill="#000000" fill-opacity="0.00000" height="1702.4641" width="12" x="1353.8914" y="196.1279"/><line style="stroke:#000000;stroke-width:1.5;stroke-dasharray:7.5,7.5;" x1="1359.4863" x2="1359.4863" y1="196.1279" y2="1898.592"/></g></g><g class="participant-lifeline" data-entity-uid="part7" data-qualified-name="DB" data-source-line="906" id="part7-lifeline"><g><title>MongoDB</title><rect fill="#000000" fill-opacity="0.00000" height="1702.4641" width="12" x="1635.5933" y="196.1279"/><line style="stroke:#000000;stroke-width:1.5;stroke-dasharray:7.5,7.5;" x1="1641.0234" x2="1641.0234" y1="196.1279" y2="1898.592"/></g></g><g class="participant-lifeline" data-entity-uid="part8" data-qualified-name="Others" data-source-line="907" id="part8-lifeline"><g><title>Other Clients</title><rect fill="#000000" fill-opacity="0.00000" height="1702.4641" width="12" x="1796.7385" y="196.1279"/><line style="stroke:#000000;stroke-width:1.5;stroke-dasharray:7.5,7.5;" x1="1802.6631" x2="1802.6631" y1="196.1279" y2="1898.592"/></g></g><g class="participant participant-head" data-entity-uid="part1" data-qualified-name="User" data-source-line="900" id="part1-head"><text fill="#000000" font-family="Verdana" font-size="21" lengthAdjust="spacing" textLength="47.7832" x="15" y="191.7188">User</text><ellipse cx="43.3916" cy="92.606" fill="#FFFFFF" rx="12" ry="12" style="stroke:#000000;stroke-width:1.5;"/><path d="M43.3916,104.606 L43.3916,145.106 M23.8916,116.606 L62.8916,116.606 M43.3916,145.106 L23.8916,167.606 M43.3916,145.106 L62.8916,167.606" fill="none" style="stroke:#000000;stroke-width:1.5;"/></g><g class="participant participant-tail" data-entity-uid="part1" data-qualified-name="User" data-source-line="900" id="part1-tail"><text fill="#000000" font-family="Verdana" font-size="21" lengthAdjust="spacing" textLength="47.7832" x="15" y="1918.2048">User</text><ellipse cx="43.3916" cy="1936.114" fill="#FFFFFF" rx="12" ry="12" style="stroke:#000000;stroke-width:1.5;"/><path d="M43.3916,1948.114 L43.3916,1988.614 M23.8916,1960.114 L62.8916,1960.114 M43.3916,1988.614 L23.8916,2011.114 M43.3916,1988.614 L62.8916,2011.114" fill="none" style="stroke:#000000;stroke-width:1.5;"/></g><g class="participant participant-head" data-entity-uid="part2" data-qualified-name="UI" data-source-line="901" id="part2-head"><rect fill="#FFFFFF" height="40.522" rx="3.75" ry="3.75" style="stroke:#000000;stroke-width:1.5;" width="136.4063" x="198.2666" y="146.606"/><text fill="#000000" font-family="Verdana" font-size="21" lengthAdjust="spacing" textLength="121.4063" x="205.7666" y="175.2188">ChatScreen</text></g><g class="participant participant-tail" data-entity-uid="part2" data-qualified-name="UI" data-source-line="901" id="part2-tail"><rect fill="#FFFFFF" height="40.522" rx="3.75" ry="3.75" style="stroke:#000000;stroke-width:1.5;" width="136.4063" x="198.2666" y="1904.592"/><text fill="#000000" font-family="Verdana" font-size="21" lengthAdjust="spacing" textLength="121.4063" x="205.7666" y="1933.2048">ChatScreen</text></g><g class="participant participant-head" data-entity-uid="part3" data-qualified-name="Notifier" data-source-line="902" id="part3-head"><rect fill="#FFFFFF" height="40.522" rx="3.75" ry="3.75" style="stroke:#000000;stroke-width:1.5;" width="193.3462" x="427.2759" y="146.606"/><text fill="#000000" font-family="Verdana" font-size="21" lengthAdjust="spacing" textLength="178.3462" x="434.7759" y="175.2188">MessagesNotifier</text></g><g class="participant participant-tail" data-entity-uid="part3" data-qualified-name="Notifier" data-source-line="902" id="part3-tail"><rect fill="#FFFFFF" height="40.522" rx="3.75" ry="3.75" style="stroke:#000000;stroke-width:1.5;" width="193.3462" x="427.2759" y="1904.592"/><text fill="#000000" font-family="Verdana" font-size="21" lengthAdjust="spacing" textLength="178.3462" x="434.7759" y="1933.2048">MessagesNotifier</text></g><g class="participant participant-head" data-entity-uid="part4" data-qualified-name="Sock" data-source-line="903" id="part4-head"><rect fill="#FFFFFF" height="40.522" rx="3.75" ry="3.75" style="stroke:#000000;stroke-width:1.5;" width="163.7227" x="775.7673" y="146.606"/><text fill="#000000" font-family="Verdana" font-size="21" lengthAdjust="spacing" textLength="148.7227" x="783.2673" y="175.2188">SocketService</text></g><g class="participant participant-tail" data-entity-uid="part4" data-qualified-name="Sock" data-source-line="903" id="part4-tail"><rect fill="#FFFFFF" height="40.522" rx="3.75" ry="3.75" style="stroke:#000000;stroke-width:1.5;" width="163.7227" x="775.7673" y="1904.592"/><text fill="#000000" font-family="Verdana" font-size="21" lengthAdjust="spacing" textLength="148.7227" x="783.2673" y="1933.2048">SocketService</text></g><g class="participant participant-head" data-entity-uid="part5" data-qualified-name="SM" data-source-line="904" id="part5-head"><rect fill="#FFFFFF" height="40.522" rx="3.75" ry="3.75" style="stroke:#000000;stroke-width:1.5;" width="183.9741" x="997.1558" y="146.606"/><text fill="#000000" font-family="Verdana" font-size="21" lengthAdjust="spacing" textLength="168.9741" x="1004.6558" y="175.2188">socket.manager</text></g><g class="participant participant-tail" data-entity-uid="part5" data-qualified-name="SM" data-source-line="904" id="part5-tail"><rect fill="#FFFFFF" height="40.522" rx="3.75" ry="3.75" style="stroke:#000000;stroke-width:1.5;" width="183.9741" x="997.1558" y="1904.592"/><text fill="#000000" font-family="Verdana" font-size="21" lengthAdjust="spacing" textLength="168.9741" x="1004.6558" y="1933.2048">socket.manager</text></g><g class="participant participant-head" data-entity-uid="part6" data-qualified-name="Svc" data-source-line="905" id="part6-head"><rect fill="#FFFFFF" height="40.522" rx="3.75" ry="3.75" style="stroke:#000000;stroke-width:1.5;" width="141.8101" x="1288.9863" y="146.606"/><text fill="#000000" font-family="Verdana" font-size="21" lengthAdjust="spacing" textLength="126.8101" x="1296.4863" y="175.2188">chat.service</text></g><g class="participant participant-tail" data-entity-uid="part6" data-qualified-name="Svc" data-source-line="905" id="part6-tail"><rect fill="#FFFFFF" height="40.522" rx="3.75" ry="3.75" style="stroke:#000000;stroke-width:1.5;" width="141.8101" x="1288.9863" y="1904.592"/><text fill="#000000" font-family="Verdana" font-size="21" lengthAdjust="spacing" textLength="126.8101" x="1296.4863" y="1933.2048">chat.service</text></g><g class="participant participant-head" data-entity-uid="part7" data-qualified-name="DB" data-source-line="906" id="part7-head"><text fill="#000000" font-family="Verdana" font-size="21" lengthAdjust="spacing" textLength="100.1396" x="1587.0234" y="191.7188">MongoDB</text><path d="M1614.5933,116.606 C1614.5933,101.606 1641.5933,101.606 1641.5933,101.606 C1641.5933,101.606 1668.5933,101.606 1668.5933,116.606 L1668.5933,155.606 C1668.5933,170.606 1641.5933,170.606 1641.5933,170.606 C1641.5933,170.606 1614.5933,170.606 1614.5933,155.606 L1614.5933,116.606" fill="#FFFFFF" style="stroke:#000000;stroke-width:1.5;"/><path d="M1614.5933,116.606 C1614.5933,131.606 1641.5933,131.606 1641.5933,131.606 C1641.5933,131.606 1668.5933,131.606 1668.5933,116.606" fill="none" style="stroke:#000000;stroke-width:1.5;"/></g><g class="participant participant-tail" data-entity-uid="part7" data-qualified-name="DB" data-source-line="906" id="part7-tail"><text fill="#000000" font-family="Verdana" font-size="21" lengthAdjust="spacing" textLength="100.1396" x="1587.0234" y="1918.2048">MongoDB</text><path d="M1614.5933,1937.614 C1614.5933,1922.614 1641.5933,1922.614 1641.5933,1922.614 C1641.5933,1922.614 1668.5933,1922.614 1668.5933,1937.614 L1668.5933,1976.614 C1668.5933,1991.614 1641.5933,1991.614 1641.5933,1991.614 C1641.5933,1991.614 1614.5933,1991.614 1614.5933,1976.614 L1614.5933,1937.614" fill="#FFFFFF" style="stroke:#000000;stroke-width:1.5;"/><path d="M1614.5933,1937.614 C1614.5933,1952.614 1641.5933,1952.614 1641.5933,1952.614 C1641.5933,1952.614 1668.5933,1952.614 1668.5933,1937.614" fill="none" style="stroke:#000000;stroke-width:1.5;"/></g><g class="participant participant-head" data-entity-uid="part8" data-qualified-name="Others" data-source-line="907" id="part8-head"><rect fill="#FFFFFF" height="40.522" rx="3.75" ry="3.75" style="stroke:#000000;stroke-width:1.5;" width="153.1509" x="1726.1631" y="146.606"/><text fill="#000000" font-family="Verdana" font-size="21" lengthAdjust="spacing" textLength="138.1509" x="1733.6631" y="175.2188">Other Clients</text></g><g class="participant participant-tail" data-entity-uid="part8" data-qualified-name="Others" data-source-line="907" id="part8-tail"><rect fill="#FFFFFF" height="40.522" rx="3.75" ry="3.75" style="stroke:#000000;stroke-width:1.5;" width="153.1509" x="1726.1631" y="1904.592"/><text fill="#000000" font-family="Verdana" font-size="21" lengthAdjust="spacing" textLength="138.1509" x="1733.6631" y="1933.2048">Other Clients</text></g><rect fill="#FFFFFF" height="4.5" style="stroke:#FFFFFF;stroke-width:1.5;" width="2007.2109" x="7.5" y="242.4774"/><line style="stroke:#000000;stroke-width:0.75;" x1="7.5" x2="2014.7109" y1="242.4774" y2="242.4774"/><line style="stroke:#000000;stroke-width:0.75;" x1="7.5" x2="2014.7109" y1="246.9774" y2="246.9774"/><rect fill="#FFFFFF" height="35.699" style="stroke:#000000;stroke-width:1.5;" width="203.7458" x="909.2325" y="226.1279"/><text fill="#000000" font-family="Verdana" font-size="19.5" font-weight="700" lengthAdjust="spacing" textLength="176.0808" x="918.2325" y="251.7327">User opens chat</text><g class="message" data-entity-1="part1" data-entity-2="part2" data-source-line="910" id="msg1"><polygon fill="#000000" points="248.4697,303.5259,263.4697,309.5259,248.4697,315.5259,254.4697,309.5259" style="stroke:#000000;stroke-width:1.5;stroke-linejoin:miter;stroke-miterlimit:10;"/><line style="stroke:#000000;stroke-width:1.5;" x1="43.3916" x2="257.4697" y1="309.5259" y2="309.5259"/><text fill="#000000" font-family="Verdana" font-size="19.5" lengthAdjust="spacing" textLength="187.0781" x="53.8916" y="302.4316">navigate /chats/:id</text></g><g class="message" data-entity-1="part2" data-entity-2="part4" data-source-line="911" id="msg2"><polygon fill="#000000" points="839.6287,348.2249,854.6287,354.2249,839.6287,360.2249,845.6287,354.2249" style="stroke:#000000;stroke-width:1.5;stroke-linejoin:miter;stroke-miterlimit:10;"/><line style="stroke:#000000;stroke-width:1.5;" x1="266.4697" x2="848.6287" y1="354.2249" y2="354.2249"/><text fill="#000000" font-family="Verdana" font-size="19.5" lengthAdjust="spacing" textLength="161.551" x="276.9697" y="347.1306">joinChat(chatId)</text></g><g class="message" data-entity-1="part4" data-entity-2="part5" data-source-line="912" id="msg3"><polygon fill="#000000" points="1071.1428,392.9238,1086.1428,398.9238,1071.1428,404.9238,1077.1428,398.9238" style="stroke:#000000;stroke-width:1.5;stroke-linejoin:miter;stroke-miterlimit:10;"/><line style="stroke:#000000;stroke-width:1.5;" x1="857.6287" x2="1080.1428" y1="398.9238" y2="398.9238"/><text fill="#000000" font-family="Verdana" font-size="19.5" lengthAdjust="spacing" textLength="141.0037" x="868.1287" y="391.8296">emit join_chat</text></g><g class="message" data-entity-1="part5" data-entity-2="part5" data-source-line="913" id="msg4"><line style="stroke:#000000;stroke-width:1.5;" x1="1089.1428" x2="1152.1428" y1="443.6228" y2="443.6228"/><line style="stroke:#000000;stroke-width:1.5;" x1="1152.1428" x2="1152.1428" y1="443.6228" y2="463.1228"/><line style="stroke:#000000;stroke-width:1.5;" x1="1090.6428" x2="1152.1428" y1="463.1228" y2="463.1228"/><polygon fill="#000000" points="1105.6428,457.1228,1090.6428,463.1228,1105.6428,469.1228,1099.6428,463.1228" style="stroke:#000000;stroke-width:1.5;stroke-linejoin:miter;stroke-miterlimit:10;"/><text fill="#000000" font-family="Verdana" font-size="19.5" lengthAdjust="spacing" textLength="186.2878" x="1099.6428" y="436.5286">socket.join(chatId)</text></g><g class="message" data-entity-1="part5" data-entity-2="part4" data-source-line="914" id="msg5"><polygon fill="#000000" points="874.1287,501.8218,859.1287,507.8218,874.1287,513.8218,868.1287,507.8218" style="stroke:#000000;stroke-width:1.5;stroke-linejoin:miter;stroke-miterlimit:10;"/><line style="stroke:#000000;stroke-width:1.5;stroke-dasharray:3,3;" x1="865.1287" x2="1087.6428" y1="507.8218" y2="507.8218"/><text fill="#000000" font-family="Verdana" font-size="19.5" lengthAdjust="spacing" textLength="114.2959" x="883.1287" y="500.7275">joined_chat</text></g><rect fill="#FFFFFF" height="4.5" style="stroke:#FFFFFF;stroke-width:1.5;" width="2007.2109" x="7.5" y="551.1713"/><line style="stroke:#000000;stroke-width:0.75;" x1="7.5" x2="2014.7109" y1="551.1713" y2="551.1713"/><line style="stroke:#000000;stroke-width:0.75;" x1="7.5" x2="2014.7109" y1="555.6713" y2="555.6713"/><rect fill="#FFFFFF" height="35.699" style="stroke:#000000;stroke-width:1.5;" width="340.2935" x="840.9587" y="534.8218"/><text fill="#000000" font-family="Verdana" font-size="19.5" font-weight="700" lengthAdjust="spacing" textLength="312.6284" x="849.9587" y="560.4265">Send message (socket path)</text><g class="message" data-entity-1="part1" data-entity-2="part2" data-source-line="917" id="msg6"><polygon fill="#000000" points="248.4697,612.2197,263.4697,618.2197,248.4697,624.2197,254.4697,618.2197" style="stroke:#000000;stroke-width:1.5;stroke-linejoin:miter;stroke-miterlimit:10;"/><line style="stroke:#000000;stroke-width:1.5;" x1="43.3916" x2="257.4697" y1="618.2197" y2="618.2197"/><text fill="#000000" font-family="Verdana" font-size="19.5" lengthAdjust="spacing" textLength="118.9233" x="53.8916" y="611.1255">type + send</text></g><g class="message" data-entity-1="part2" data-entity-2="part3" data-source-line="918" id="msg7"><polygon fill="#000000" points="505.949,656.9187,520.949,662.9187,505.949,668.9187,511.949,662.9187" style="stroke:#000000;stroke-width:1.5;stroke-linejoin:miter;stroke-miterlimit:10;"/><line style="stroke:#000000;stroke-width:1.5;" x1="266.4697" x2="514.949" y1="662.9187" y2="662.9187"/><text fill="#000000" font-family="Verdana" font-size="19.5" lengthAdjust="spacing" textLength="221.4792" x="276.9697" y="655.8245">sendMessage(content)</text></g><g class="message" data-entity-1="part3" data-entity-2="part4" data-source-line="919" id="msg8"><polygon fill="#000000" points="839.6287,701.6177,854.6287,707.6177,839.6287,713.6177,845.6287,707.6177" style="stroke:#000000;stroke-width:1.5;stroke-linejoin:miter;stroke-miterlimit:10;"/><line style="stroke:#000000;stroke-width:1.5;" x1="523.949" x2="848.6287" y1="707.6177" y2="707.6177"/><text fill="#000000" font-family="Verdana" font-size="19.5" lengthAdjust="spacing" textLength="297.6797" x="534.449" y="700.5234">sendMessage(chatId, content)</text></g><g class="message" data-entity-1="part4" data-entity-2="part5" data-source-line="920" id="msg9"><polygon fill="#000000" points="1071.1428,746.3167,1086.1428,752.3167,1071.1428,758.3167,1077.1428,752.3167" style="stroke:#000000;stroke-width:1.5;stroke-linejoin:miter;stroke-miterlimit:10;"/><line style="stroke:#000000;stroke-width:1.5;" x1="857.6287" x2="1080.1428" y1="752.3167" y2="752.3167"/><text fill="#000000" font-family="Verdana" font-size="19.5" lengthAdjust="spacing" textLength="195.5142" x="868.1287" y="745.2224">emit send_message</text></g><g class="message" data-entity-1="part5" data-entity-2="part6" data-source-line="921" id="msg10"><polygon fill="#000000" points="1341.8914,791.0156,1356.8914,797.0156,1341.8914,803.0156,1347.8914,797.0156" style="stroke:#000000;stroke-width:1.5;stroke-linejoin:miter;stroke-miterlimit:10;"/><line style="stroke:#000000;stroke-width:1.5;" x1="1089.1428" x2="1350.8914" y1="797.0156" y2="797.0156"/><text fill="#000000" font-family="Verdana" font-size="19.5" lengthAdjust="spacing" textLength="147.821" x="1099.6428" y="789.9214">sendMessage()</text></g><g class="message" data-entity-1="part6" data-entity-2="part7" data-source-line="922" id="msg11"><polygon fill="#000000" points="1623.5933,859.4136,1638.5933,865.4136,1623.5933,871.4136,1629.5933,865.4136" style="stroke:#000000;stroke-width:1.5;stroke-linejoin:miter;stroke-miterlimit:10;"/><line style="stroke:#000000;stroke-width:1.5;" x1="1359.8914" x2="1632.5933" y1="865.4136" y2="865.4136"/><text fill="#000000" font-family="Verdana" font-size="19.5" lengthAdjust="spacing" textLength="158.9041" x="1370.3914" y="834.6204">create Message,</text><text fill="#000000" font-family="Verdana" font-size="19.5" lengthAdjust="spacing" textLength="245.7019" x="1370.3914" y="858.3193">update Chat.lastMessage</text></g><g class="message" data-entity-1="part7" data-entity-2="part6" data-source-line="923" id="msg12"><polygon fill="#000000" points="1376.3914,904.1125,1361.3914,910.1125,1376.3914,916.1125,1370.3914,910.1125" style="stroke:#000000;stroke-width:1.5;stroke-linejoin:miter;stroke-miterlimit:10;"/><line style="stroke:#000000;stroke-width:1.5;stroke-dasharray:3,3;" x1="1367.3914" x2="1640.0933" y1="910.1125" y2="910.1125"/><text fill="#000000" font-family="Verdana" font-size="19.5" lengthAdjust="spacing" textLength="83.8462" x="1385.3914" y="903.0183">Message</text></g><g class="message" data-entity-1="part5" data-entity-2="part5" data-source-line="924" id="msg13"><line style="stroke:#000000;stroke-width:1.5;" x1="1089.1428" x2="1152.1428" y1="978.5105" y2="978.5105"/><line style="stroke:#000000;stroke-width:1.5;" x1="1152.1428" x2="1152.1428" y1="978.5105" y2="998.0105"/><line style="stroke:#000000;stroke-width:1.5;" x1="1090.6428" x2="1152.1428" y1="998.0105" y2="998.0105"/><polygon fill="#000000" points="1105.6428,992.0105,1090.6428,998.0105,1105.6428,1004.0105,1099.6428,998.0105" style="stroke:#000000;stroke-width:1.5;stroke-linejoin:miter;stroke-miterlimit:10;"/><text fill="#000000" font-family="Verdana" font-size="19.5" lengthAdjust="spacing" textLength="174.4717" x="1099.6428" y="947.7173">io.to(chatId).emit</text><text fill="#000000" font-family="Verdana" font-size="19.5" lengthAdjust="spacing" textLength="168.9968" x="1099.6428" y="971.4163">receive_message</text></g><g class="message" data-entity-1="part5" data-entity-2="part4" data-source-line="925" id="msg14"><polygon fill="#000000" points="874.1287,1036.7095,859.1287,1042.7095,874.1287,1048.7095,868.1287,1042.7095" style="stroke:#000000;stroke-width:1.5;stroke-linejoin:miter;stroke-miterlimit:10;"/><line style="stroke:#000000;stroke-width:1.5;stroke-dasharray:3,3;" x1="865.1287" x2="1087.6428" y1="1042.7095" y2="1042.7095"/><text fill="#000000" font-family="Verdana" font-size="19.5" lengthAdjust="spacing" textLength="168.9968" x="883.1287" y="1035.6152">receive_message</text></g><g class="message" data-entity-1="part5" data-entity-2="part8" data-source-line="926" id="msg15"><polygon fill="#000000" points="1784.7385,1081.4084,1799.7385,1087.4084,1784.7385,1093.4084,1790.7385,1087.4084" style="stroke:#000000;stroke-width:1.5;stroke-linejoin:miter;stroke-miterlimit:10;"/><line style="stroke:#000000;stroke-width:1.5;stroke-dasharray:3,3;" x1="1089.1428" x2="1793.7385" y1="1087.4084" y2="1087.4084"/><text fill="#000000" font-family="Verdana" font-size="19.5" lengthAdjust="spacing" textLength="168.9968" x="1099.6428" y="1080.3142">receive_message</text></g><g class="message" data-entity-1="part4" data-entity-2="part3" data-source-line="927" id="msg16"><polygon fill="#000000" points="540.449,1126.1074,525.449,1132.1074,540.449,1138.1074,534.449,1132.1074" style="stroke:#000000;stroke-width:1.5;stroke-linejoin:miter;stroke-miterlimit:10;"/><line style="stroke:#000000;stroke-width:1.5;stroke-dasharray:3,3;" x1="531.449" x2="856.1287" y1="1132.1074" y2="1132.1074"/><text fill="#000000" font-family="Verdana" font-size="19.5" lengthAdjust="spacing" textLength="158.009" x="549.449" y="1125.0132">messageStream</text></g><g class="message" data-entity-1="part3" data-entity-2="part2" data-source-line="928" id="msg17"><polygon fill="#000000" points="282.9697,1170.8064,267.9697,1176.8064,282.9697,1182.8064,276.9697,1176.8064" style="stroke:#000000;stroke-width:1.5;stroke-linejoin:miter;stroke-miterlimit:10;"/><line style="stroke:#000000;stroke-width:1.5;" x1="273.9697" x2="522.449" y1="1176.8064" y2="1176.8064"/><text fill="#000000" font-family="Verdana" font-size="19.5" lengthAdjust="spacing" textLength="220.2034" x="291.9697" y="1169.7122">append MessageModel</text></g><rect fill="#FFFFFF" height="4.5" style="stroke:#FFFFFF;stroke-width:1.5;" width="2007.2109" x="7.5" y="1220.1559"/><line style="stroke:#000000;stroke-width:0.75;" x1="7.5" x2="2014.7109" y1="1220.1559" y2="1220.1559"/><line style="stroke:#000000;stroke-width:0.75;" x1="7.5" x2="2014.7109" y1="1224.6559" y2="1224.6559"/><rect fill="#FFFFFF" height="35.699" style="stroke:#000000;stroke-width:1.5;" width="205.4597" x="908.3756" y="1203.8064"/><text fill="#000000" font-family="Verdana" font-size="19.5" font-weight="700" lengthAdjust="spacing" textLength="177.7947" x="917.3756" y="1229.4111">Typing indicator</text><g class="message" data-entity-1="part1" data-entity-2="part2" data-source-line="931" id="msg18"><polygon fill="#000000" points="248.4697,1281.2043,263.4697,1287.2043,248.4697,1293.2043,254.4697,1287.2043" style="stroke:#000000;stroke-width:1.5;stroke-linejoin:miter;stroke-miterlimit:10;"/><line style="stroke:#000000;stroke-width:1.5;" x1="43.3916" x2="257.4697" y1="1287.2043" y2="1287.2043"/><text fill="#000000" font-family="Verdana" font-size="19.5" lengthAdjust="spacing" textLength="61.2136" x="53.8916" y="1280.1101">typing</text></g><g class="message" data-entity-1="part2" data-entity-2="part4" data-source-line="932" id="msg19"><polygon fill="#000000" points="839.6287,1325.9033,854.6287,1331.9033,839.6287,1337.9033,845.6287,1331.9033" style="stroke:#000000;stroke-width:1.5;stroke-linejoin:miter;stroke-miterlimit:10;"/><line style="stroke:#000000;stroke-width:1.5;" x1="266.4697" x2="848.6287" y1="1331.9033" y2="1331.9033"/><text fill="#000000" font-family="Verdana" font-size="19.5" lengthAdjust="spacing" textLength="191.0676" x="276.9697" y="1324.8091">startTyping(chatId)</text></g><g class="message" data-entity-1="part4" data-entity-2="part5" data-source-line="933" id="msg20"><polygon fill="#000000" points="1071.1428,1370.6023,1086.1428,1376.6023,1071.1428,1382.6023,1077.1428,1376.6023" style="stroke:#000000;stroke-width:1.5;stroke-linejoin:miter;stroke-miterlimit:10;"/><line style="stroke:#000000;stroke-width:1.5;" x1="857.6287" x2="1080.1428" y1="1376.6023" y2="1376.6023"/><text fill="#000000" font-family="Verdana" font-size="19.5" lengthAdjust="spacing" textLength="111.687" x="868.1287" y="1369.5081">emit typing</text></g><g class="message" data-entity-1="part5" data-entity-2="part8" data-source-line="934" id="msg21"><polygon fill="#000000" points="1784.7385,1415.3013,1799.7385,1421.3013,1784.7385,1427.3013,1790.7385,1421.3013" style="stroke:#000000;stroke-width:1.5;stroke-linejoin:miter;stroke-miterlimit:10;"/><line style="stroke:#000000;stroke-width:1.5;stroke-dasharray:3,3;" x1="1089.1428" x2="1793.7385" y1="1421.3013" y2="1421.3013"/><text fill="#000000" font-family="Verdana" font-size="19.5" lengthAdjust="spacing" textLength="245.5305" x="1099.6428" y="1414.207">typing { userId, chatId }</text></g><g class="message" data-entity-1="part8" data-entity-2="part8" data-source-line="935" id="msg22"><line style="stroke:#000000;stroke-width:1.5;" x1="1802.7385" x2="1865.7385" y1="1466.0002" y2="1466.0002"/><line style="stroke:#000000;stroke-width:1.5;" x1="1865.7385" x2="1865.7385" y1="1466.0002" y2="1485.5002"/><line style="stroke:#000000;stroke-width:1.5;" x1="1804.2385" x2="1865.7385" y1="1485.5002" y2="1485.5002"/><polygon fill="#000000" points="1819.2385,1479.5002,1804.2385,1485.5002,1819.2385,1491.5002,1813.2385,1485.5002" style="stroke:#000000;stroke-width:1.5;stroke-linejoin:miter;stroke-miterlimit:10;"/><text fill="#000000" font-family="Verdana" font-size="19.5" lengthAdjust="spacing" textLength="190.9724" x="1813.2385" y="1458.906">show typing bubble</text></g><rect fill="#FFFFFF" height="4.5" style="stroke:#FFFFFF;stroke-width:1.5;" width="2007.2109" x="7.5" y="1528.8497"/><line style="stroke:#000000;stroke-width:0.75;" x1="7.5" x2="2014.7109" y1="1528.8497" y2="1528.8497"/><line style="stroke:#000000;stroke-width:0.75;" x1="7.5" x2="2014.7109" y1="1533.3497" y2="1533.3497"/><rect fill="#FFFFFF" height="35.699" style="stroke:#000000;stroke-width:1.5;" width="366.8108" x="827.7001" y="1512.5002"/><text fill="#000000" font-family="Verdana" font-size="19.5" font-weight="700" lengthAdjust="spacing" textLength="339.1458" x="836.7001" y="1538.105">Unread count (all participants)</text><g class="message" data-entity-1="part5" data-entity-2="part5" data-source-line="938" id="msg23"><line style="stroke:#000000;stroke-width:1.5;" x1="1089.1428" x2="1152.1428" y1="1595.8982" y2="1595.8982"/><line style="stroke:#000000;stroke-width:1.5;" x1="1152.1428" x2="1152.1428" y1="1595.8982" y2="1615.3982"/><line style="stroke:#000000;stroke-width:1.5;" x1="1090.6428" x2="1152.1428" y1="1615.3982" y2="1615.3982"/><polygon fill="#000000" points="1105.6428,1609.3982,1090.6428,1615.3982,1105.6428,1621.3982,1099.6428,1615.3982" style="stroke:#000000;stroke-width:1.5;stroke-linejoin:miter;stroke-miterlimit:10;"/><text fill="#000000" font-family="Verdana" font-size="19.5" lengthAdjust="spacing" textLength="249.7485" x="1099.6428" y="1588.804">emit chat:unread_update</text></g><g class="message" data-entity-1="part4" data-entity-2="part3" data-source-line="939" id="msg24"><polygon fill="#000000" points="540.449,1654.0972,525.449,1660.0972,540.449,1666.0972,534.449,1660.0972" style="stroke:#000000;stroke-width:1.5;stroke-linejoin:miter;stroke-miterlimit:10;"/><line style="stroke:#000000;stroke-width:1.5;stroke-dasharray:3,3;" x1="531.449" x2="856.1287" y1="1660.0972" y2="1660.0972"/><text fill="#000000" font-family="Verdana" font-size="19.5" lengthAdjust="spacing" textLength="183.936" x="549.449" y="1653.0029">chatUnreadStream</text></g><g class="message" data-entity-1="part3" data-entity-2="part2" data-source-line="940" id="msg25"><polygon fill="#000000" points="282.9697,1698.7961,267.9697,1704.7961,282.9697,1710.7961,276.9697,1704.7961" style="stroke:#000000;stroke-width:1.5;stroke-linejoin:miter;stroke-miterlimit:10;"/><line style="stroke:#000000;stroke-width:1.5;" x1="273.9697" x2="522.449" y1="1704.7961" y2="1704.7961"/><text fill="#000000" font-family="Verdana" font-size="19.5" lengthAdjust="spacing" textLength="134.2815" x="291.9697" y="1697.7019">update badge</text></g><rect fill="#FFFFFF" height="4.5" style="stroke:#FFFFFF;stroke-width:1.5;" width="2007.2109" x="7.5" y="1748.1456"/><line style="stroke:#000000;stroke-width:0.75;" x1="7.5" x2="2014.7109" y1="1748.1456" y2="1748.1456"/><line style="stroke:#000000;stroke-width:0.75;" x1="7.5" x2="2014.7109" y1="1752.6456" y2="1752.6456"/><rect fill="#FFFFFF" height="35.699" style="stroke:#000000;stroke-width:1.5;" width="353.2427" x="834.4841" y="1731.7961"/><text fill="#000000" font-family="Verdana" font-size="19.5" font-weight="700" lengthAdjust="spacing" textLength="325.5776" x="843.4841" y="1757.4009">HTTP fallback (offline socket)</text><path d="M34.5,1789.9951 L34.5,1875.4951 L498,1875.4951 L498,1804.9951 L483,1789.9951 L34.5,1789.9951" fill="#FFFFFF" style="stroke:#000000;stroke-width:1.5;"/><path d="M483,1789.9951 L483,1804.9951 L498,1804.9951 L483,1789.9951" fill="#FFFFFF" style="stroke:#000000;stroke-width:1.5;"/><text fill="#000000" font-family="Verdana" font-size="19.5" lengthAdjust="spacing" textLength="399.0835" x="43.5" y="1817.0999">ChatRepository.sendMessage() via POST</text><text fill="#000000" font-family="Verdana" font-size="19.5" lengthAdjust="spacing" textLength="374.6323" x="43.5" y="1840.7988">/chats/:chatId/messages also persists</text><text fill="#000000" font-family="Verdana" font-size="19.5" lengthAdjust="spacing" textLength="432.2849" x="43.5" y="1864.4978">and emits receive_message from controller.</text><?plantuml-src VLJ1Rjim3BthAxYUKgnniCCk0R93ciDwo5hKwQr0mCXCeasHF4lsK0m3zX7xmdt9A5bkepJTqNoFrECZwNT-JmU2MgComYkl2UPjLSrRhU7lxpzGqlUMZAGft1FgiLTCljwZXoKvXpiImadaf0_5Ho5GUjl0WwD6rDXu9LMDniD5I2XbGsGk01qytEHmAkM-MA-sYff86ZvoQcdbD_8bDPsI57aXadDSv1G7D5oqBrOkSufaGOKxhj99KQ773JfYGTRix68UaSKyJxrbmnguregCTv4H8qw8sIos3hOcuo0y0REPYA7n9suQfc2mKplq19C0kybKLO81XaCRJFXgbGbkZG9-KrsA60_uab4wA1yfwm0BZWr8wZbWBwaCvvMfwXE3r99C1OVUUHZr-L2Ztr--KksVQeBtu3WZgHs64rxcQ1hWI5hZsPPByOo_l9_nei8hUEQ_xZBGrqdUq6WdJ-fm8iSOMimPuGKBrYRmwj6qTHK2mSz2e_F3oZ9x_5nlcRyH12XRU3lOM0GvZwOXIQgZJD9BSs-W_MQSmsE_kP49ApstSSWSZ4F0kWuJItANjY8TvxXwgfNPWJALaXZExypqc92lcVEyqdtcVpOjPPusquVX9xJyJ1nZh02_HA8SaztU_XWoDkrcewa_53OKArw0bczgXFopEJeo5rVmQ21HJNXbsiQyTJ_PipO6Mb_zBIVJMcomslLYFgzMTx1b4HlaUYExtMg-bNHJKOknd60xBiB_BeWRTK-rTOeDVogobOHE8TpTbYlc3LVU6pH94tQ0sbcesI3bl6CUyc13Z-vqKM3Rs4CyayPgJKqXmWu4DU8V?></g></svg>