<svg xmlns="http://www.w3.org/2000/svg" xmlns:xlink="http://www.w3.org/1999/xlink" contentStyleType="text/css" data-diagram-type="DESCRIPTION" preserveAspectRatio="none" version="1.1" viewBox="0 0 1560 1008" zoomAndPan="magnify"><?plantuml 1.2026.6?><defs/><g><g class="title" data-source-line="8"><text fill="#000000" font-family="Verdana" font-size="33" font-weight="700" lengthAdjust="spacing" textLength="748.7842" x="404.4943" y="55.6772">BuddBull &#8212; System Component Diagram</text></g><!--cluster Client Tier--><g class="cluster" data-qualified-name="Client Tier" data-source-line="21" id="ent0003"><path d="M800.25,88.106 L896.8828,88.106 A5.625,5.625 0 0 1 900.6328,91.856 L911.1328,117.1589 L1163.25,117.1589 A3.75,3.75 0 0 1 1167,120.9089 L1167,533.606 A3.75,3.75 0 0 1 1163.25,537.356 L800.25,537.356 A3.75,3.75 0 0 1 796.5,533.606 L796.5,91.856 A3.75,3.75 0 0 1 800.25,88.106" fill="#FFFFFF" style="stroke:#000000;stroke-width:1.5;"/><line style="stroke:#000000;stroke-width:1.5;" x1="796.5" x2="911.1328" y1="117.1589" y2="117.1589"/><text fill="#000000" font-family="Verdana" font-size="16.5" font-weight="700" lengthAdjust="spacing" textLength="95.1328" x="802.5" y="107.6946">Client Tier</text></g><!--cluster Flutter--><g class="cluster" data-qualified-name="Client Tier.Flutter" data-source-line="22" id="ent0004"><rect fill="#FFFFFF" height="314.25" rx="3.75" ry="3.75" style="stroke:#000000;stroke-width:1.5;" width="280.5" x="826.5" y="187.106"/><text fill="#000000" font-family="Verdana" font-size="16.5" font-weight="700" lengthAdjust="spacing" textLength="103.842" x="914.829" y="206.6946">Flutter App</text><text fill="#000000" font-family="Verdana" font-size="16.5" font-weight="700" lengthAdjust="spacing" textLength="144.7859" x="894.3571" y="226.7476">(iOS / Android)</text></g><!--cluster Server Tier--><g class="cluster" data-qualified-name="Server Tier" data-source-line="29" id="ent0008"><path d="M216.75,344.606 L320.6982,344.606 A5.625,5.625 0 0 1 324.4482,348.356 L334.9482,373.6589 L756.75,373.6589 A3.75,3.75 0 0 1 760.5,377.4089 L760.5,756.356 A3.75,3.75 0 0 1 756.75,760.106 L216.75,760.106 A3.75,3.75 0 0 1 213,756.356 L213,348.356 A3.75,3.75 0 0 1 216.75,344.606" fill="#FFFFFF" style="stroke:#000000;stroke-width:1.5;"/><line style="stroke:#000000;stroke-width:1.5;" x1="213" x2="334.9482" y1="373.6589" y2="373.6589"/><text fill="#000000" font-family="Verdana" font-size="16.5" font-weight="700" lengthAdjust="spacing" textLength="102.4482" x="219" y="364.1946">Server Tier</text></g><!--cluster API--><g class="cluster" data-qualified-name="Server Tier.API" data-source-line="30" id="ent0009"><rect fill="#FFFFFF" height="280.5" rx="3.75" ry="3.75" style="stroke:#000000;stroke-width:1.5;" width="208.5" x="490.5" y="443.606"/><text fill="#000000" font-family="Verdana" font-size="16.5" font-weight="700" lengthAdjust="spacing" textLength="112.1323" x="538.6838" y="463.1946">Express API</text><text fill="#000000" font-family="Verdana" font-size="16.5" font-weight="700" lengthAdjust="spacing" textLength="73.4041" x="558.048" y="483.2476">/api/v1</text></g><!--cluster Data & External Services--><g class="cluster" data-qualified-name="Data . External Services" data-source-line="37" id="ent0013"><path d="M20.25,830.606 L251.2515,830.606 A5.625,5.625 0 0 1 255.0015,834.356 L265.5015,859.6589 L1178.25,859.6589 A3.75,3.75 0 0 1 1182,863.4089 L1182,982.856 A3.75,3.75 0 0 1 1178.25,986.606 L20.25,986.606 A3.75,3.75 0 0 1 16.5,982.856 L16.5,834.356 A3.75,3.75 0 0 1 20.25,830.606" fill="#FFFFFF" style="stroke:#000000;stroke-width:1.5;"/><line style="stroke:#000000;stroke-width:1.5;" x1="16.5" x2="265.5015" y1="859.6589" y2="859.6589"/><text fill="#000000" font-family="Verdana" font-size="16.5" font-weight="700" lengthAdjust="spacing" textLength="229.5015" x="22.5" y="850.1946">Data &amp; External Services</text></g><g class="entity" data-qualified-name="Client Tier.Flutter.FlutterREST" data-source-line="23" id="ent0005"><text fill="#000000" font-family="Verdana" font-size="16.5" lengthAdjust="spacing" textLength="43.3528" x="902.3236" y="156.6416">REST</text><rect fill="#FFFFFF" height="18" style="stroke:#000000;stroke-width:2.25;" width="18" x="915" y="178.106"/></g><g class="entity" data-qualified-name="Client Tier.Flutter.FlutterWS" data-source-line="24" id="ent0006"><text fill="#000000" font-family="Verdana" font-size="16.5" lengthAdjust="spacing" textLength="92.4097" x="1033.7952" y="156.6416">WebSocket</text><rect fill="#FFFFFF" height="18" style="stroke:#000000;stroke-width:2.25;" width="18" x="1071" y="178.106"/></g><g class="entity" data-qualified-name="Client Tier.Flutter.FlutterFCM" data-source-line="25" id="ent0007"><text fill="#000000" font-family="Verdana" font-size="16.5" lengthAdjust="spacing" textLength="34.9094" x="836.0453" y="156.6416">FCM</text><rect fill="#FFFFFF" height="18" style="stroke:#000000;stroke-width:2.25;" width="18" x="844.5" y="178.106"/></g><!--entity Cron--><g class="entity" data-qualified-name="Server Tier.Cron" data-source-line="34" id="ent0012"><rect fill="#FFFFFF" height="70.106" rx="3.75" ry="3.75" style="stroke:#000000;stroke-width:1.5;" width="216.8416" x="237.75" y="408.356"/><text fill="#000000" font-family="Verdana" font-size="16.5" lengthAdjust="spacing" textLength="81.2109" x="252.75" y="439.9446">Cron Jobs</text><text fill="#000000" font-family="Verdana" font-size="16.5" lengthAdjust="spacing" textLength="186.8416" x="252.75" y="459.9976">(game auto-complete)</text></g><g class="entity" data-qualified-name="Server Tier.API.APIHTTP" data-source-line="31" id="ent0010"><text fill="#000000" font-family="Verdana" font-size="16.5" lengthAdjust="spacing" textLength="42.6841" x="496.158" y="413.1416">HTTP</text><rect fill="#FFFFFF" height="18" style="stroke:#000000;stroke-width:2.25;" width="18" x="508.5" y="434.606"/></g><g class="entity" data-qualified-name="Server Tier.API.APISocket" data-source-line="32" id="ent0011"><text fill="#000000" font-family="Verdana" font-size="16.5" lengthAdjust="spacing" textLength="81.9199" x="631.04" y="413.1416">Socket.IO</text><rect fill="#FFFFFF" height="18" style="stroke:#000000;stroke-width:2.25;" width="18" x="663" y="434.606"/></g><!--entity Mongo--><g class="entity" data-qualified-name="Data . External Services.Mongo" data-source-line="38" id="ent0014"><path d="M833.25,893.606 C833.25,878.606 897.2908,878.606 897.2908,878.606 C897.2908,878.606 961.3315,878.606 961.3315,893.606 L961.3315,947.2119 C961.3315,962.2119 897.2908,962.2119 897.2908,962.2119 C897.2908,962.2119 833.25,962.2119 833.25,947.2119 L833.25,893.606" fill="#FFFFFF" style="stroke:#000000;stroke-width:1.5;"/><path d="M833.25,893.606 C833.25,908.606 897.2908,908.606 897.2908,908.606 C897.2908,908.606 961.3315,908.606 961.3315,893.606" fill="none" style="stroke:#000000;stroke-width:1.5;"/><text fill="#000000" font-family="Verdana" font-size="16.5" lengthAdjust="spacing" textLength="94.9717" x="848.25" y="931.1946">MongoDB 7</text><text fill="#000000" font-family="Verdana" font-size="16.5" lengthAdjust="spacing" textLength="98.0815" x="848.25" y="951.2476">(Mongoose)</text></g><!--entity Firebase--><g class="entity" data-qualified-name="Data . External Services.Firebase" data-source-line="39" id="ent0015"><rect fill="#FFFFFF" height="70.106" rx="3.75" ry="3.75" style="stroke:#000000;stroke-width:1.5;" width="143.9612" x="1014" y="885.356"/><text fill="#000000" font-family="Verdana" font-size="16.5" lengthAdjust="spacing" textLength="113.9612" x="1029" y="916.9446">Firebase Auth</text><text fill="#000000" font-family="Verdana" font-size="16.5" lengthAdjust="spacing" textLength="95.592" x="1029" y="936.9976">(ID tokens)</text></g><!--entity FCM--><g class="entity" data-qualified-name="Data . External Services.FCM" data-source-line="40" id="ent0016"><rect fill="#FFFFFF" height="70.106" rx="3.75" ry="3.75" style="stroke:#000000;stroke-width:1.5;" width="152.0823" x="41.25" y="885.356"/><text fill="#000000" font-family="Verdana" font-size="16.5" lengthAdjust="spacing" textLength="122.0823" x="56.25" y="916.9446">Firebase Cloud</text><text fill="#000000" font-family="Verdana" font-size="16.5" lengthAdjust="spacing" textLength="86.3672" x="56.25" y="936.9976">Messaging</text></g><!--entity SendGrid--><g class="entity" data-qualified-name="Data . External Services.SendGrid" data-source-line="41" id="ent0017"><rect fill="#FFFFFF" height="70.106" rx="3.75" ry="3.75" style="stroke:#000000;stroke-width:1.5;" width="106.4736" x="245.25" y="885.356"/><text fill="#000000" font-family="Verdana" font-size="16.5" lengthAdjust="spacing" textLength="76.4736" x="260.25" y="916.9446">SendGrid</text><text fill="#000000" font-family="Verdana" font-size="16.5" lengthAdjust="spacing" textLength="60.4329" x="260.25" y="936.9976">(Email)</text></g><!--entity Maps--><g class="entity" data-qualified-name="Data . External Services.Maps" data-source-line="42" id="ent0018"><rect fill="#FFFFFF" height="50.053" rx="3.75" ry="3.75" style="stroke:#000000;stroke-width:1.5;" width="169.9277" x="404.25" y="895.856"/><text fill="#000000" font-family="Verdana" font-size="16.5" lengthAdjust="spacing" textLength="139.9277" x="419.25" y="927.4446">Google Maps API</text></g><!--entity S3--><g class="entity" data-qualified-name="Data . External Services.S3" data-source-line="43" id="ent0019"><rect fill="#FFFFFF" height="70.106" rx="3.75" ry="3.75" style="stroke:#000000;stroke-width:1.5;" width="152.4529" x="627" y="885.356"/><text fill="#000000" font-family="Verdana" font-size="16.5" lengthAdjust="spacing" textLength="66.4431" x="642" y="916.9446">AWS S3</text><text fill="#000000" font-family="Verdana" font-size="16.5" lengthAdjust="spacing" textLength="122.4529" x="642" y="936.9976">(prod uploads)</text></g><!--entity User--><g class="entity" data-qualified-name="User" data-source-line="18" id="ent0001"><ellipse cx="1231.3638" cy="134.606" fill="#FFFFFF" rx="12" ry="12" style="stroke:#000000;stroke-width:1.5;"/><path d="M1231.3638,146.606 L1231.3638,187.106 M1211.8638,158.606 L1250.8638,158.606 M1231.3638,187.106 L1211.8638,209.606 M1231.3638,187.106 L1250.8638,209.606" fill="none" style="stroke:#000000;stroke-width:1.5;"/><text fill="#000000" font-family="Verdana" font-size="16.5" lengthAdjust="spacing" textLength="64.3162" x="1191" y="229.1946">Player /</text><text fill="#000000" font-family="Verdana" font-size="16.5" lengthAdjust="spacing" textLength="80.7275" x="1191" y="249.2476">Organizer</text></g><!--entity Admin--><g class="entity" data-qualified-name="Admin" data-source-line="19" id="ent0002"><ellipse cx="1351.5388" cy="145.106" fill="#FFFFFF" rx="12" ry="12" style="stroke:#000000;stroke-width:1.5;"/><path d="M1351.5388,157.106 L1351.5388,197.606 M1332.0388,169.106 L1371.0388,169.106 M1351.5388,197.606 L1332.0388,220.106 M1351.5388,197.606 L1371.0388,220.106" fill="none" style="stroke:#000000;stroke-width:1.5;"/><text fill="#000000" font-family="Verdana" font-size="16.5" lengthAdjust="spacing" textLength="52.5776" x="1325.25" y="239.6946">Admin</text></g><g class="entity" data-qualified-name="GMN32" data-source-line="62" id="ent0033"><path d="M1191.75,396.356 L1191.75,491.5679 L1538.2727,491.5679 L1538.2727,411.356 L1523.2727,396.356 L1191.75,396.356" fill="#FFFFFF" style="stroke:#000000;stroke-width:1.5;"/><path d="M1523.2727,396.356 L1523.2727,411.356 L1538.2727,411.356 L1523.2727,396.356" fill="#FFFFFF" style="stroke:#000000;stroke-width:1.5;"/><text fill="#000000" font-family="Verdana" font-size="16.5" font-weight="700" lengthAdjust="spacing" textLength="87.5676" x="1200.75" y="420.4446">Features:</text><text fill="#000000" font-family="Verdana" font-size="16.5" lengthAdjust="spacing" textLength="221.6543" x="1294.1184" y="420.4446">Auth, Onboarding, Games,</text><text fill="#000000" font-family="Verdana" font-size="16.5" lengthAdjust="spacing" textLength="234.2146" x="1200.75" y="440.4976">Chat, Performance, Ratings,</text><text fill="#000000" font-family="Verdana" font-size="16.5" lengthAdjust="spacing" textLength="230.1782" x="1200.75" y="460.5505">Notifications, Profile, Admin</text><text fill="#000000" font-family="Verdana" font-size="16.5" font-weight="700" lengthAdjust="spacing" textLength="55.3733" x="1200.75" y="480.6035">State:</text><text fill="#000000" font-family="Verdana" font-size="16.5" lengthAdjust="spacing" textLength="86.5042" x="1261.9241" y="480.6035">Riverpod |</text><text fill="#000000" font-family="Verdana" font-size="16.5" font-weight="700" lengthAdjust="spacing" textLength="42.3538" x="1354.229" y="480.6035">Nav:</text><text fill="#000000" font-family="Verdana" font-size="16.5" lengthAdjust="spacing" textLength="81.6541" x="1402.3835" y="480.6035">go_router</text></g><g class="entity" data-qualified-name="GMN35" data-source-line="69" id="ent0036"><path d="M785.25,628.856 L785.25,704.0149 L1117.4963,704.0149 L1117.4963,643.856 L1102.4963,628.856 L785.25,628.856" fill="#FFFFFF" style="stroke:#000000;stroke-width:1.5;"/><path d="M1102.4963,628.856 L1102.4963,643.856 L1117.4963,643.856 L1102.4963,628.856" fill="#FFFFFF" style="stroke:#000000;stroke-width:1.5;"/><text fill="#000000" font-family="Verdana" font-size="16.5" font-weight="700" lengthAdjust="spacing" textLength="67.8611" x="794.25" y="652.9446">Layers:</text><text fill="#000000" font-family="Verdana" font-size="16.5" lengthAdjust="spacing" textLength="175.0144" x="867.9119" y="652.9446">Routes &#8594; Controllers</text><text fill="#000000" font-family="Verdana" font-size="16.5" lengthAdjust="spacing" textLength="177.0205" x="794.25" y="672.9976">&#8594; Services &#8594; Models</text><text fill="#000000" font-family="Verdana" font-size="16.5" font-weight="700" lengthAdjust="spacing" textLength="50.4749" x="794.25" y="693.0505">Auth:</text><text fill="#000000" font-family="Verdana" font-size="16.5" lengthAdjust="spacing" textLength="244.4707" x="850.5256" y="693.0505">Firebase ID token &#8594; req.user</text></g><!--link User to Flutter--><g class="link" data-entity-1="ent0001" data-entity-2="ent0004" data-link-type="dependency" data-source-line="46" id="lnk20"><path d="M1192.53,253.256 C1178.04,275.426 1160.775,299.876 1143,320.606 C1134.6375,330.3597 1125.5428,340.1247 1116.169,349.6441 C1113.8255,352.0239 1111.4646,354.3884 1109.0934,356.7335 C1108.5005,357.3198 1113.2561,352.6477 1112.6621,353.2315" fill="none" id="User-to-Flutter" style="stroke:#000000;stroke-width:1.5;"/><polygon fill="#000000" points="1107.3131,358.4887,1121.1471,353.3051,1112.6621,353.2315,1112.7356,344.7466,1107.3131,358.4887" style="stroke:#000000;stroke-width:1.5;stroke-linejoin:miter;stroke-miterlimit:10;"/></g><!--link Admin to Flutter--><g class="link" data-entity-1="ent0002" data-entity-2="ent0004" data-link-type="dependency" data-source-line="47" id="lnk21"><path d="M1325.145,225.326 C1317.33,234.956 1308.33,244.916 1299,253.106 C1256.025,290.801 1239.45,292.796 1189.5,320.606 C1179.075,326.411 1175.73,326.471 1165.5,332.606 C1153.7288,339.6635 1141.6875,347.3313 1129.7775,355.2227 C1123.8225,359.1684 1117.9003,363.17 1112.0611,367.1791 C1110.6013,368.1814 1109.1467,369.1842 1107.698,370.1867 C1107.5169,370.312 1113.5013,366.1667 1113.3204,366.292" fill="none" id="Admin-to-Flutter" style="stroke:#000000;stroke-width:1.5;"/><polygon fill="#000000" points="1107.1551,370.5626,1121.6692,367.8078,1113.3204,366.292,1114.8363,357.9432,1107.1551,370.5626" style="stroke:#000000;stroke-width:1.5;stroke-linejoin:miter;stroke-miterlimit:10;"/></g><!--link FlutterREST to APIHTTP--><g class="link" data-entity-1="ent0005" data-entity-2="ent0010" data-link-type="dependency" data-source-line="49" id="lnk22"><path d="M922.23,196.466 C918.645,210.371 909.18,239.141 889.5,253.106 C783.855,328.091 708.51,225.071 601.5,298.106 C550.335,333.026 527.9832,402.9475 521.3682,427.3375" fill="none" id="FlutterREST-to-APIHTTP" style="stroke:#000000;stroke-width:1.5;"/><polygon fill="#000000" points="519.405,434.576,528.7296,423.1172,521.3682,427.3375,517.148,419.9761,519.405,434.576" style="stroke:#000000;stroke-width:1.5;stroke-linejoin:miter;stroke-miterlimit:10;"/><text fill="#000000" font-family="Verdana" font-size="16.5" lengthAdjust="spacing" textLength="86.343" x="603" y="316.1946">Dio + JWT</text></g><!--link FlutterWS to APISocket--><g class="link" data-entity-1="ent0006" data-entity-2="ent0011" data-link-type="dependency" data-source-line="50" id="lnk23"><path d="M1070.715,194.381 C1015.905,228.431 741.7459,398.7735 687.4609,432.4935" fill="none" id="FlutterWS-to-APISocket" style="stroke:#000000;stroke-width:1.5;"/><polygon fill="#000000" points="681.09,436.451,695.7236,434.4244,687.4609,432.4935,689.3918,424.2309,681.09,436.451" style="stroke:#000000;stroke-width:1.5;stroke-linejoin:miter;stroke-miterlimit:10;"/><text fill="#000000" font-family="Verdana" font-size="16.5" lengthAdjust="spacing" textLength="81.9199" x="901.5" y="316.1946">Socket.IO</text></g><!--reverse link FlutterFCM to FCM--><g class="link" data-entity-1="ent0007" data-entity-2="ent0016" data-link-type="dependency" data-source-line="51" id="lnk24"><path d="M836.7046,187.9525 C775.2496,185.7925 430.95,180.896 213,332.606 C113.52,401.846 98.91,445.136 64.5,561.356 C30.285,676.916 76.92,820.376 102.375,884.876" fill="none" id="FlutterFCM-backto-FCM" style="stroke:#000000;stroke-width:1.5;"/><polygon fill="#000000" points="844.2,188.216,830.9191,181.7455,836.7046,187.9525,830.4976,193.7381,844.2,188.216" style="stroke:#000000;stroke-width:1.5;stroke-linejoin:miter;stroke-miterlimit:10;"/><text fill="#000000" font-family="Verdana" font-size="16.5" lengthAdjust="spacing" textLength="145.9622" x="66" y="579.4446">push notifications</text></g><!--link API to Mongo--><g class="link" data-entity-1="ent0009" data-entity-2="ent0014" data-link-type="dependency" data-source-line="53" id="lnk25"><path d="M679.9928,724.2218 C680.1446,724.3446 680.2966,724.4674 680.4487,724.5902 C680.7531,724.8358 681.0583,725.0814 681.3642,725.327 C681.9762,725.8181 682.5913,726.3093 683.2096,726.8001 C685.6829,728.7637 688.2066,730.7238 690.7763,732.671 C711.3338,748.2485 734.835,763.001 759,772.106 C775.89,778.466 908.715,770.876 921,784.106 C944.16,809.051 937.0625,841.4177 923.5475,871.1627" fill="none" id="API-to-Mongo" style="stroke:#000000;stroke-width:1.5;"/><polygon fill="#000000" points="920.445,877.991,931.492,868.1821,923.5475,871.1627,920.5669,863.2182,920.445,877.991" style="stroke:#000000;stroke-width:1.5;stroke-linejoin:miter;stroke-miterlimit:10;"/></g><!--link API to Firebase--><g class="link" data-entity-1="ent0009" data-entity-2="ent0015" data-link-type="dependency" data-source-line="54" id="lnk26"><path d="M679.9049,724.4608 C680.0566,724.5838 680.2085,724.7067 680.3606,724.8297 C680.6649,725.0756 680.9699,725.3215 681.2758,725.5674 C681.8875,726.0592 682.5025,726.5509 683.1206,727.0423 C685.5932,729.0079 688.1166,730.9692 690.6863,732.9166 C711.2438,748.496 734.7675,763.1885 759,772.106 C801.93,787.901 923.28,764.291 964.5,784.106 C1009.68,805.826 1041.5582,846.3264 1062.3032,878.6964" fill="none" id="API-to-Firebase" style="stroke:#000000;stroke-width:1.5;"/><polygon fill="#000000" points="1066.35,885.011,1064.1174,870.4073,1062.3032,878.6964,1054.0141,876.8822,1066.35,885.011" style="stroke:#000000;stroke-width:1.5;stroke-linejoin:miter;stroke-miterlimit:10;"/><text fill="#000000" font-family="Verdana" font-size="16.5" lengthAdjust="spacing" textLength="107.677" x="997.5" y="802.1946">verify tokens</text></g><!--link API to FCM--><g class="link" data-entity-1="ent0009" data-entity-2="ent0016" data-link-type="dependency" data-source-line="55" id="lnk27"><path d="M490.0898,677.0812 C488.3007,677.3223 486.5005,677.5696 484.6897,677.8233 C481.068,678.3308 477.4038,678.8639 473.7009,679.424 C444.0778,683.9046 411.9788,690.1094 379.3763,698.6978 C314.1713,715.8747 246.9525,742.586 193.5,784.106 C160.305,809.891 141.7835,847.3511 130.3235,878.1761" fill="none" id="API-to-FCM" style="stroke:#000000;stroke-width:1.5;"/><polygon fill="#000000" points="127.71,885.206,138.0383,874.643,130.3235,878.1761,126.7905,870.4613,127.71,885.206" style="stroke:#000000;stroke-width:1.5;stroke-linejoin:miter;stroke-miterlimit:10;"/><text fill="#000000" font-family="Verdana" font-size="16.5" lengthAdjust="spacing" textLength="78.5764" x="195" y="802.1946">sendPush</text></g><!--link API to SendGrid--><g class="link" data-entity-1="ent0009" data-entity-2="ent0017" data-link-type="dependency" data-source-line="56" id="lnk28"><path d="M490.3963,679.6554 C490.0379,679.7262 489.6793,679.7975 489.3204,679.8691 C466.3505,684.4535 442.2816,690.746 418.8019,699.371 C371.8425,716.621 327.24,743.201 298.5,784.106 C278.025,813.251 280.2479,848.0624 286.7429,877.4774" fill="none" id="API-to-SendGrid" style="stroke:#000000;stroke-width:1.5;"/><polygon fill="#000000" points="288.36,884.801,291.3081,870.3248,286.7429,877.4774,279.5904,872.9122,288.36,884.801" style="stroke:#000000;stroke-width:1.5;stroke-linejoin:miter;stroke-miterlimit:10;"/><text fill="#000000" font-family="Verdana" font-size="16.5" lengthAdjust="spacing" textLength="157.5637" x="300" y="802.1946">transactional email</text></g><!--link API to Maps--><g class="link" data-entity-1="ent0009" data-entity-2="ent0018" data-link-type="dependency" data-source-line="57" id="lnk29"><path d="M527.203,724.3263 C527.0575,724.4494 526.912,724.5727 526.7667,724.6962 C526.4759,724.9431 526.1855,725.1909 525.8955,725.4393 C525.3155,725.9362 524.7369,726.4362 524.16,726.9391 C505.6988,743.0322 488.91,762.1835 478.5,784.106 C461.46,820.001 469.2501,860.1848 478.0401,888.2048" fill="none" id="API-to-Maps" style="stroke:#000000;stroke-width:1.5;"/><polygon fill="#000000" points="480.285,895.361,481.9691,880.684,478.0401,888.2048,470.5192,884.2758,480.285,895.361" style="stroke:#000000;stroke-width:1.5;stroke-linejoin:miter;stroke-miterlimit:10;"/><text fill="#000000" font-family="Verdana" font-size="16.5" lengthAdjust="spacing" textLength="226.8589" x="480" y="802.1946">autocomplete / static maps</text></g><!--link API to S3--><g class="link" data-entity-1="ent0009" data-entity-2="ent0019" data-link-type="dependency" data-source-line="58" id="lnk30"><path d="M682.7538,724.3109 C682.8609,724.4352 682.968,724.5596 683.075,724.6842 C683.5031,725.1825 683.9304,725.6832 684.3567,726.1863 C685.2094,727.1923 686.0583,728.2078 686.9025,729.2322 C700.41,745.6235 712.7175,764.3285 720,784.106 C732.075,816.896 726.8237,849.7183 718.4387,877.6183" fill="none" id="API-to-S3" style="stroke:#000000;stroke-width:1.5;"/><polygon fill="#000000" points="716.28,884.801,725.9117,873.5991,718.4387,877.6183,714.4195,870.1453,716.28,884.801" style="stroke:#000000;stroke-width:1.5;stroke-linejoin:miter;stroke-miterlimit:10;"/><text fill="#000000" font-family="Verdana" font-size="16.5" lengthAdjust="spacing" textLength="182.0398" x="726" y="802.1946">profile pictures (prod)</text></g><!--link Cron to API--><g class="link" data-entity-1="ent0012" data-entity-2="ent0009" data-link-type="dependency" data-source-line="59" id="lnk31"><path d="M377.865,479.156 C391.8825,493.886 409.6275,511.961 429.075,530.4035 C438.7988,539.6247 448.9481,548.9378 459.27,557.9706 C464.4309,562.4871 469.635,566.9334 474.8505,571.2631 C477.4583,573.428 480.069,575.5637 482.6785,577.6644 C483.9833,578.7148 485.2878,579.7564 486.5916,580.7886 C487.2434,581.3047 487.8951,581.8184 488.5465,582.3297 C488.8723,582.5853 489.1979,582.8403 489.5235,583.0947 C489.6863,583.2219 483.9341,578.7377 484.0968,578.8646" fill="none" id="Cron-to-API" style="stroke:#000000;stroke-width:1.5;"/><polygon fill="#000000" points="490.0118,583.4758,483.0538,570.4437,484.0968,578.8646,475.6759,579.9076,490.0118,583.4758" style="stroke:#000000;stroke-width:1.5;stroke-linejoin:miter;stroke-miterlimit:10;"/></g><!--link Flutter to GMN32--><g class="link" data-entity-1="ent0004" data-entity-2="ent0033" data-link-type="association" data-source-line="62" id="lnk34"><path d="M1107.0172,443.606 C1107.1427,443.606 1107.2682,443.606 1107.3938,443.606 C1111.41,443.606 1115.4263,443.606 1119.4425,443.606 C1127.475,443.606 1135.5075,443.606 1143.54,443.606 C1159.605,443.606 1175.67,443.606 1191.735,443.606" fill="none" id="Flutter-GMN32" style="stroke:#000000;stroke-width:1.5;stroke-dasharray:10.5,10.5;"/></g><!--link API to GMN35--><g class="link" data-entity-1="ent0009" data-entity-2="ent0036" data-link-type="association" data-source-line="69" id="lnk37"><path d="M699.2133,666.356 C699.7149,666.356 700.2165,666.356 700.7181,666.356 C704.7311,666.356 708.7441,666.356 712.7573,666.356 C720.7838,666.356 728.8106,666.356 736.8375,666.356 C752.8913,666.356 768.945,666.356 784.995,666.356" fill="none" id="API-GMN35" style="stroke:#000000;stroke-width:1.5;stroke-dasharray:10.5,10.5;"/></g><?plantuml-src TLJRRXCn47ttLmnvG2KaZQeA8KK8ASsbj29Db0tAIoGqsNKsLhpsOdjB0rJYYGz0V66_XB4tcsmgU5lFd1cVENEyBzo6PnnoYK8n9vpaS5KaoLKX9Jpz_0FHpZgUGLzdkLPSEHW8J0rcZDaO2Nnn_eO-jqBbI568ArpaTfGrF7QeKibh4Bl1H7yLAeKrIblF97oDXNGZJUNY6_M-g9VTfmEHSMM5LcNpifmnZ9qsq9XAt743dQMQc1GLDJ0DG0kVB3SLffTaGeLe-68intYBAOT6Nme_tLpugkyCZfD0OoGBvwXrBy-NwanC8kX0JoL6Y-HLQ5O1V1r0hWqLpORHl9xqvrfwmLUHZhVSrJ6Bg8OOzSVr71qf-SWUQwGZRkxfsd-I7ZxaXbiQT7gpL1tCHUV-efnyUdD2zCDyFgqI_hkMAXcUtqogV1a8F4ukwnkju5QlBEcJ8la92wVR7Y2vuwL87dF2Ve0EuIKC7sWwXHByD2BcjXmbeUmABU76MgLwS0LlgNdurdRVCfoUxKeO7ifwXTjGmSq0dDwIRVQRsgV_KzINkaYMQap2OKeMBMk2yZLun5LoRGG1puOP2bcshgAds6kjoVumnZm8MDAcmocgjuWWkgH-kT495BdKcEmPHvTUD6zYQBVVLsvWmRyd4LOpMaZizmbTUhCQNiFjOiuEHgiGvKO9SzWrEneEthNRVdnAvuNTWD9Eh4MCZjwWPSmxoRSfrr2T3c9sWSmfrhlz0ew0qD2IN5DgUWXN-b7E6LIMdYnTGxxWNkFZPLx9RZ1OvIzwZjOHgHWoh-oXuQNdRVHQq09o4Rk27WG4YL-nuDYz1epHOFIp4kd6WLuV50LeDaSSGrstsGoMQi54hJIQXDpHWclokcqHiBz1ru8fDsjjCbGnRy6C6AaqPE_gkX6ivDJQ_uJyDH7nv_wEcI3HSZB13uhUuRsFfVgpqOLdH1Bv9V3dZFqGlir7_miCN6U-mCBJhz_qxrREQ2afGo0VgLvQE8nrmgKDvNv0NtnOOVLw0j3mB-U5hRFu2m00?></g></svg>