<svg xmlns="http://www.w3.org/2000/svg" xmlns:xlink="http://www.w3.org/1999/xlink" contentStyleType="text/css" data-diagram-type="DESCRIPTION" height="1927.5px" preserveAspectRatio="none" style="width:1221px;height:1927px;background:#FFFFFF;" version="1.1" viewBox="0 0 1221 1927" width="1221px" zoomAndPan="magnify"><?plantuml 1.2026.6?><defs/><g><g class="title" data-source-line="954"><text fill="#000000" font-family="Verdana" font-size="33" font-weight="700" lengthAdjust="spacing" textLength="1082.7803" x="67.6099" y="55.6772">BuddBull &#8212; Application Functionality (Use Case Overview)</text></g><!--cluster BuddBull Platform--><g class="cluster" data-qualified-name="BuddBull Platform" data-source-line="965" id="ent0004"><rect fill="#FFFFFF" height="1171.5" rx="3.75" ry="3.75" style="stroke:#000000;stroke-width:1.5;" width="1011" x="189" y="456.356"/><text fill="#000000" font-family="Verdana" font-size="21" font-weight="700" lengthAdjust="spacing" textLength="214.9219" x="587.0391" y="480.4688">BuddBull Platform</text></g><!--entity UC1--><g class="entity" data-qualified-name="BuddBull Platform.UC1" data-source-line="966" id="ent0005"><ellipse cx="395.359" cy="1083.2684" fill="#FFFFFF" rx="122.359" ry="40.4125" style="stroke:#000000;stroke-width:1.5;"/><text fill="#000000" font-family="Verdana" font-size="21" lengthAdjust="spacing" textLength="167.5181" x="311.5999" y="1078.2751">Register / Login</text><text fill="#000000" font-family="Verdana" font-size="21" lengthAdjust="spacing" textLength="164.1138" x="313.3021" y="1103.7971">(Firebase Auth)</text></g><!--entity UC2--><g class="entity" data-qualified-name="BuddBull Platform.UC2" data-source-line="967" id="ent0006"><ellipse cx="395.3894" cy="551.1838" fill="#FFFFFF" rx="182.3894" ry="40.0779" style="stroke:#000000;stroke-width:1.5;"/><text fill="#000000" font-family="Verdana" font-size="21" lengthAdjust="spacing" textLength="229.8003" x="280.4892" y="544.2951">Complete Onboarding</text><text fill="#000000" font-family="Verdana" font-size="21" lengthAdjust="spacing" textLength="263.6997" x="263.5395" y="569.8171">(sports, avatar, location)</text></g><!--entity UC3--><g class="entity" data-qualified-name="BuddBull Platform.UC3" data-source-line="968" id="ent0007"><ellipse cx="395.2326" cy="1206.6525" fill="#FFFFFF" rx="133.4826" ry="30.2965" style="stroke:#000000;stroke-width:1.5;"/><text fill="#000000" font-family="Verdana" font-size="21" lengthAdjust="spacing" textLength="224.1914" x="283.1369" y="1214.1635">Search &amp; Join Games</text></g><!--entity UC4--><g class="entity" data-qualified-name="BuddBull Platform.UC4" data-source-line="969" id="ent0008"><ellipse cx="395.2446" cy="1453.7049" fill="#FFFFFF" rx="149.9946" ry="33.5989" style="stroke:#000000;stroke-width:1.5;"/><text fill="#000000" font-family="Verdana" font-size="21" lengthAdjust="spacing" textLength="261.5156" x="264.4868" y="1461.2159">Create &amp; Manage Games</text></g><!--entity UC5--><g class="entity" data-qualified-name="BuddBull Platform.UC5" data-source-line="970" id="ent0009"><ellipse cx="395.4585" cy="1572.3976" fill="#FFFFFF" rx="139.7085" ry="31.5417" style="stroke:#000000;stroke-width:1.5;"/><text fill="#000000" font-family="Verdana" font-size="21" lengthAdjust="spacing" textLength="238.4136" x="276.2517" y="1579.9086">Approve / Kick Players</text></g><!--entity UC6--><g class="entity" data-qualified-name="BuddBull Platform.UC6" data-source-line="971" id="ent0010"><ellipse cx="1049.6608" cy="1453.7881" fill="#FFFFFF" rx="116.6608" ry="26.9322" style="stroke:#000000;stroke-width:1.5;"/><text fill="#000000" font-family="Verdana" font-size="21" lengthAdjust="spacing" textLength="184.4883" x="957.4167" y="1461.2991">Group &amp; DM Chat</text></g><!--entity UC7--><g class="entity" data-qualified-name="BuddBull Platform.UC7" data-source-line="972" id="ent0011"><ellipse cx="395.5212" cy="950.1496" fill="#FFFFFF" rx="136.7712" ry="40.0437" style="stroke:#000000;stroke-width:1.5;"/><text fill="#000000" font-family="Verdana" font-size="21" lengthAdjust="spacing" textLength="177.9053" x="306.5686" y="944.1159">Log Performance</text><text fill="#000000" font-family="Verdana" font-size="21" lengthAdjust="spacing" textLength="189.9536" x="300.5444" y="969.6379">(match / training)</text></g><!--entity UC8--><g class="entity" data-qualified-name="BuddBull Platform.UC8" data-source-line="973" id="ent0012"><ellipse cx="395.6097" cy="684.3799" fill="#FFFFFF" rx="97.8597" ry="40.5239" style="stroke:#000000;stroke-width:1.5;"/><text fill="#000000" font-family="Verdana" font-size="21" lengthAdjust="spacing" textLength="131.2603" x="329.9796" y="679.0313">Rate Players</text><text fill="#000000" font-family="Verdana" font-size="21" lengthAdjust="spacing" textLength="132.2856" x="329.4669" y="704.5533">(post-game)</text></g><!--entity UC9--><g class="entity" data-qualified-name="BuddBull Platform.UC9" data-source-line="974" id="ent0013"><ellipse cx="394.9963" cy="818.0499" fill="#FFFFFF" rx="121.9963" ry="39.944" style="stroke:#000000;stroke-width:1.5;"/><text fill="#000000" font-family="Verdana" font-size="21" lengthAdjust="spacing" textLength="169.21" x="310.3913" y="813.7271">Friend Requests</text><text fill="#000000" font-family="Verdana" font-size="21" lengthAdjust="spacing" textLength="156.4336" x="316.7795" y="839.2491">&amp; Social Graph</text></g><!--entity UC10--><g class="entity" data-qualified-name="BuddBull Platform.UC10" data-source-line="975" id="ent0014"><ellipse cx="1049.8634" cy="586.9975" fill="#FFFFFF" rx="112.3634" ry="39.1416" style="stroke:#000000;stroke-width:1.5;"/><text fill="#000000" font-family="Verdana" font-size="21" lengthAdjust="spacing" textLength="130.2041" x="984.7614" y="579.6492">Notifications</text><text fill="#000000" font-family="Verdana" font-size="21" lengthAdjust="spacing" textLength="158.9355" x="970.3956" y="605.1711">(inbox + push)</text></g><!--entity UC11--><g class="entity" data-qualified-name="BuddBull Platform.UC11" data-source-line="976" id="ent0015"><ellipse cx="1050.2856" cy="785.2131" fill="#FFFFFF" rx="126.2856" ry="28.8571" style="stroke:#000000;stroke-width:1.5;"/><text fill="#000000" font-family="Verdana" font-size="21" lengthAdjust="spacing" textLength="207.4673" x="946.552" y="792.7241">View Profile &amp; Stats</text></g><!--entity UC12--><g class="entity" data-qualified-name="BuddBull Platform.UC12" data-source-line="977" id="ent0016"><ellipse cx="395.1077" cy="1327.7388" fill="#FFFFFF" rx="166.3577" ry="38.8829" style="stroke:#000000;stroke-width:1.5;"/><text fill="#000000" font-family="Verdana" font-size="21" lengthAdjust="spacing" textLength="187.8105" x="301.2025" y="1320.0061">Admin Dashboard</text><text fill="#000000" font-family="Verdana" font-size="21" lengthAdjust="spacing" textLength="240.29" x="274.9627" y="1345.5281">ban, broadcast, export</text></g><!--entity Player--><g class="entity" data-qualified-name="Player" data-source-line="961" id="ent0001"><ellipse cx="67.719" cy="639.356" fill="#FFFFFF" rx="12" ry="12" style="stroke:#000000;stroke-width:1.5;"/><path d="M67.719,651.356 L67.719,691.856 M48.219,663.356 L87.219,663.356 M67.719,691.856 L48.219,714.356 M67.719,691.856 L87.219,714.356" fill="none" style="stroke:#000000;stroke-width:1.5;"/><text fill="#000000" font-family="Verdana" font-size="21" lengthAdjust="spacing" textLength="64.938" x="35.25" y="738.4688">Player</text></g><!--entity Organizer--><g class="entity" data-qualified-name="Organizer" data-source-line="962" id="ent0002"><ellipse cx="67.8721" cy="1408.856" fill="#FFFFFF" rx="12" ry="12" style="stroke:#000000;stroke-width:1.5;"/><path d="M67.8721,1420.856 L67.8721,1461.356 M48.3721,1432.856 L87.3721,1432.856 M67.8721,1461.356 L48.3721,1483.856 M67.8721,1461.356 L87.3721,1483.856" fill="none" style="stroke:#000000;stroke-width:1.5;"/><text fill="#000000" font-family="Verdana" font-size="21" lengthAdjust="spacing" textLength="102.7441" x="16.5" y="1507.9688">Organizer</text></g><!--entity Admin--><g class="entity" data-qualified-name="Admin" data-source-line="963" id="ent0003"><ellipse cx="67.2085" cy="1161.356" fill="#FFFFFF" rx="12" ry="12" style="stroke:#000000;stroke-width:1.5;"/><path d="M67.2085,1173.356 L67.2085,1213.856 M47.7085,1185.356 L86.7085,1185.356 M67.2085,1213.856 L47.7085,1236.356 M67.2085,1213.856 L86.7085,1236.356" fill="none" style="stroke:#000000;stroke-width:1.5;"/><text fill="#000000" font-family="Verdana" font-size="21" lengthAdjust="spacing" textLength="66.917" x="33.75" y="1260.4688">Admin</text></g><!--link Player to UC1--><g class="link" data-entity-1="ent0001" data-entity-2="ent0005" data-link-type="dependency" data-source-line="980" id="lnk17"><path d="M72.195,743.111 C79.35,816.776 102.48,942.296 177,1015.856 C204.765,1043.276 236.2242,1057.6675 273.2592,1067.3575" fill="none" id="Player-to-UC1" style="stroke:#000000;stroke-width:1.5;"/><polygon fill="#000000" points="280.515,1069.256,268.9734,1060.0342,273.2592,1067.3575,265.9359,1071.6434,280.515,1069.256" style="stroke:#000000;stroke-width:1.5;stroke-linejoin:miter;stroke-miterlimit:10;"/></g><!--link Player to UC2--><g class="link" data-entity-1="ent0001" data-entity-2="ent0006" data-link-type="dependency" data-source-line="981" id="lnk18"><path d="M99.9,661.976 C120.855,647.591 149.625,629.321 177,616.856 C207.975,602.771 235.5829,592.8429 268.0729,582.9879" fill="none" id="Player-to-UC2" style="stroke:#000000;stroke-width:1.5;"/><polygon fill="#000000" points="275.25,580.811,260.5896,578.9879,268.0729,582.9879,264.0728,590.4712,275.25,580.811" style="stroke:#000000;stroke-width:1.5;stroke-linejoin:miter;stroke-miterlimit:10;"/></g><!--link Player to UC3--><g class="link" data-entity-1="ent0001" data-entity-2="ent0007" data-link-type="dependency" data-source-line="982" id="lnk19"><path d="M75.135,743.261 C87.93,854.996 121.05,1091.771 177,1149.356 C201.135,1174.196 227.3947,1186.8538 260.9047,1195.1488" fill="none" id="Player-to-UC3" style="stroke:#000000;stroke-width:1.5;"/><polygon fill="#000000" points="268.185,1196.951,256.5222,1187.8829,260.9047,1195.1488,253.6388,1199.5313,268.185,1196.951" style="stroke:#000000;stroke-width:1.5;stroke-linejoin:miter;stroke-miterlimit:10;"/></g><!--link Player to UC6--><g class="link" data-entity-1="ent0001" data-entity-2="ent0010" data-link-type="dependency" data-source-line="983" id="lnk20"><path d="M83.115,625.631 C97.89,578.396 126.24,515.096 177,484.856 C311.58,404.681 771.405,435.491 879,549.356 C923.715,596.681 912.54,774.776 924,838.856 C964.755,1066.736 1022.0305,1332.7235 1040.8705,1419.0335" fill="none" id="Player-to-UC6" style="stroke:#000000;stroke-width:1.5;"/><polygon fill="#000000" points="1042.47,1426.361,1045.4529,1411.892,1040.8705,1419.0335,1033.729,1414.4511,1042.47,1426.361" style="stroke:#000000;stroke-width:1.5;stroke-linejoin:miter;stroke-miterlimit:10;"/></g><!--link Player to UC7--><g class="link" data-entity-1="ent0001" data-entity-2="ent0011" data-link-type="dependency" data-source-line="984" id="lnk21"><path d="M87.015,743.051 C103.605,787.706 132.48,847.481 177,883.856 C204.72,906.506 232.9102,919.3347 267.0352,929.1147" fill="none" id="Player-to-UC7" style="stroke:#000000;stroke-width:1.5;"/><polygon fill="#000000" points="274.245,931.181,262.9205,921.6939,267.0352,929.1147,259.6144,933.2295,274.245,931.181" style="stroke:#000000;stroke-width:1.5;stroke-linejoin:miter;stroke-miterlimit:10;"/></g><!--link Player to UC8--><g class="link" data-entity-1="ent0001" data-entity-2="ent0012" data-link-type="dependency" data-source-line="985" id="lnk22"><path d="M100.14,684.356 C145.065,684.356 222.525,684.356 289.545,684.356" fill="none" id="Player-to-UC8" style="stroke:#000000;stroke-width:1.5;"/><polygon fill="#000000" points="297.045,684.356,283.545,678.356,289.545,684.356,283.545,690.356,297.045,684.356" style="stroke:#000000;stroke-width:1.5;stroke-linejoin:miter;stroke-miterlimit:10;"/></g><!--link Player to UC9--><g class="link" data-entity-1="ent0001" data-entity-2="ent0013" data-link-type="dependency" data-source-line="986" id="lnk23"><path d="M100.005,706.136 C121.005,720.176 149.775,738.026 177,750.356 C215.415,767.756 252.388,780.3029 290.788,791.4629" fill="none" id="Player-to-UC9" style="stroke:#000000;stroke-width:1.5;"/><polygon fill="#000000" points="297.99,793.556,286.7008,784.0268,290.788,791.4629,283.3519,795.55,297.99,793.556" style="stroke:#000000;stroke-width:1.5;stroke-linejoin:miter;stroke-miterlimit:10;"/></g><!--link Player to UC10--><g class="link" data-entity-1="ent0001" data-entity-2="ent0014" data-link-type="dependency" data-source-line="987" id="lnk24"><path d="M74.145,625.646 C84.3,525.206 110.67,327.146 163.5,285.356 C412.935,88.106 604.515,124.781 879,285.356 C976.965,342.671 1020.8253,472.4264 1038.0303,540.2264" fill="none" id="Player-to-UC10" style="stroke:#000000;stroke-width:1.5;"/><polygon fill="#000000" points="1039.875,547.496,1042.3701,532.9349,1038.0303,540.2264,1030.7388,535.8865,1039.875,547.496" style="stroke:#000000;stroke-width:1.5;stroke-linejoin:miter;stroke-miterlimit:10;"/></g><!--link Player to UC11--><g class="link" data-entity-1="ent0001" data-entity-2="ent0015" data-link-type="dependency" data-source-line="988" id="lnk25"><path d="M69,625.586 C72.54,556.721 90.15,445.241 163.5,391.856 C292.05,298.301 757.35,289.481 879,391.856 C968.565,467.231 871.92,546.536 924,651.356 C945.3,694.211 979.0745,728.088 1007.8895,752.673" fill="none" id="Player-to-UC11" style="stroke:#000000;stroke-width:1.5;"/><polygon fill="#000000" points="1013.595,757.541,1007.2194,744.2142,1007.8895,752.673,999.4307,753.343,1013.595,757.541" style="stroke:#000000;stroke-width:1.5;stroke-linejoin:miter;stroke-miterlimit:10;"/></g><!--link Organizer to UC1--><g class="link" data-entity-1="ent0002" data-entity-2="ent0005" data-link-type="dependency" data-source-line="990" id="lnk26"><path d="M86.655,1395.281 C112.26,1311.851 158.655,1166.891 177,1149.356 C204.87,1122.731 235.9053,1108.6992 272.5653,1099.1892" fill="none" id="Organizer-to-UC1" style="stroke:#000000;stroke-width:1.5;"/><polygon fill="#000000" points="279.825,1097.306,265.2509,1094.888,272.5653,1099.1892,268.2641,1106.5036,279.825,1097.306" style="stroke:#000000;stroke-width:1.5;stroke-linejoin:miter;stroke-miterlimit:10;"/></g><!--link Organizer to UC4--><g class="link" data-entity-1="ent0002" data-entity-2="ent0008" data-link-type="dependency" data-source-line="991" id="lnk27"><path d="M119.025,1453.856 C152.835,1453.856 191.88,1453.856 237.06,1453.856" fill="none" id="Organizer-to-UC4" style="stroke:#000000;stroke-width:1.5;"/><polygon fill="#000000" points="244.56,1453.856,231.06,1447.856,237.06,1453.856,231.06,1459.856,244.56,1453.856" style="stroke:#000000;stroke-width:1.5;stroke-linejoin:miter;stroke-miterlimit:10;"/></g><!--link Organizer to UC5--><g class="link" data-entity-1="ent0002" data-entity-2="ent0009" data-link-type="dependency" data-source-line="992" id="lnk28"><path d="M118.83,1484.876 C136.71,1495.091 157.32,1505.876 177,1513.856 C214.02,1528.871 248.87,1539.4028 286.085,1548.8378" fill="none" id="Organizer-to-UC5" style="stroke:#000000;stroke-width:1.5;"/><polygon fill="#000000" points="293.355,1550.681,281.7435,1541.5473,286.085,1548.8378,278.7945,1553.1793,293.355,1550.681" style="stroke:#000000;stroke-width:1.5;stroke-linejoin:miter;stroke-miterlimit:10;"/></g><!--link Organizer to UC3--><g class="link" data-entity-1="ent0002" data-entity-2="ent0007" data-link-type="dependency" data-source-line="993" id="lnk29"><path d="M118.62,1407.671 C135.99,1388.771 153.915,1365.656 165,1341.356 C179.835,1308.851 153.045,1288.361 177,1261.856 C199.92,1236.506 225.4086,1223.7931 258.5586,1215.7081" fill="none" id="Organizer-to-UC3" style="stroke:#000000;stroke-width:1.5;"/><polygon fill="#000000" points="265.845,1213.931,251.3078,1211.3006,258.5586,1215.7081,254.1511,1222.9589,265.845,1213.931" style="stroke:#000000;stroke-width:1.5;stroke-linejoin:miter;stroke-miterlimit:10;"/></g><!--link Organizer to UC6--><g class="link" data-entity-1="ent0002" data-entity-2="ent0010" data-link-type="dependency" data-source-line="994" id="lnk30"><path d="M71.01,1512.506 C76.695,1576.121 96.555,1674.956 163.5,1722.356 C423.015,1906.136 600.51,1875.881 879,1722.356 C974.58,1669.661 1021.521,1545.0309 1038.876,1488.0159" fill="none" id="Organizer-to-UC6" style="stroke:#000000;stroke-width:1.5;"/><polygon fill="#000000" points="1041.06,1480.841,1031.3888,1492.0087,1038.876,1488.0159,1042.8687,1495.5031,1041.06,1480.841" style="stroke:#000000;stroke-width:1.5;stroke-linejoin:miter;stroke-miterlimit:10;"/></g><!--link Organizer to UC7--><g class="link" data-entity-1="ent0002" data-entity-2="ent0011" data-link-type="dependency" data-source-line="995" id="lnk31"><path d="M88.08,1395.161 C97.815,1364.171 109.485,1325.396 118.5,1290.356 C149.595,1169.561 92.655,1107.761 177,1015.856 C200.805,989.921 227.2553,976.1173 260.9603,966.4573" fill="none" id="Organizer-to-UC7" style="stroke:#000000;stroke-width:1.5;"/><polygon fill="#000000" points="268.17,964.391,253.5394,962.3426,260.9603,966.4573,256.8456,973.8782,268.17,964.391" style="stroke:#000000;stroke-width:1.5;stroke-linejoin:miter;stroke-miterlimit:10;"/></g><!--link Organizer to UC11--><g class="link" data-entity-1="ent0002" data-entity-2="ent0015" data-link-type="dependency" data-source-line="996" id="lnk32"><path d="M87.795,1512.521 C104.28,1553.291 132.66,1604.576 177,1629.356 C456.645,1785.626 682.86,1719.146 879,1465.856 C1040.505,1257.296 1050.1258,921.9407 1049.2408,821.0957" fill="none" id="Organizer-to-UC11" style="stroke:#000000;stroke-width:1.5;"/><polygon fill="#000000" points="1049.175,813.596,1043.2937,827.1481,1049.2408,821.0957,1055.2932,827.0428,1049.175,813.596" style="stroke:#000000;stroke-width:1.5;stroke-linejoin:miter;stroke-miterlimit:10;"/></g><!--link Admin to UC12--><g class="link" data-entity-1="ent0003" data-entity-2="ent0016" data-link-type="dependency" data-source-line="998" id="lnk33"><path d="M101.37,1224.926 C122.46,1236.536 150.825,1251.251 177,1261.856 C211.26,1275.746 242.4126,1286.2034 277.1826,1296.5684" fill="none" id="Admin-to-UC12" style="stroke:#000000;stroke-width:1.5;"/><polygon fill="#000000" points="284.37,1298.711,273.1467,1289.1043,277.1826,1296.5684,269.7185,1300.6042,284.37,1298.711" style="stroke:#000000;stroke-width:1.5;stroke-linejoin:miter;stroke-miterlimit:10;"/></g><!--link Admin to UC1--><g class="link" data-entity-1="ent0003" data-entity-2="ent0005" data-link-type="dependency" data-source-line="999" id="lnk34"><path d="M101.31,1187.231 C122.37,1175.291 150.735,1160.171 177,1149.356 C215.925,1133.336 252.9688,1121.2546 291.2938,1110.1996" fill="none" id="Admin-to-UC1" style="stroke:#000000;stroke-width:1.5;"/><polygon fill="#000000" points="298.5,1108.121,283.8659,1106.0976,291.2938,1110.1996,287.1918,1117.6275,298.5,1108.121" style="stroke:#000000;stroke-width:1.5;stroke-linejoin:miter;stroke-miterlimit:10;"/></g><!--link UC4 to UC6--><g class="link" data-entity-1="ent0008" data-entity-2="ent0010" data-link-type="dependency" data-source-line="1001" id="lnk35"><path d="M545.46,1453.856 C663.045,1453.856 817.365,1453.856 925.395,1453.856" fill="none" id="UC4-to-UC6" style="stroke:#000000;stroke-width:1.5;stroke-dasharray:10.5,10.5;"/><polygon fill="#000000" points="932.895,1453.856,919.395,1447.856,925.395,1453.856,919.395,1459.856,932.895,1453.856" style="stroke:#000000;stroke-width:1.5;stroke-linejoin:miter;stroke-miterlimit:10;"/><text fill="#000000" font-family="Verdana" font-size="19.5" lengthAdjust="spacing" textLength="183.6694" x="659.25" y="1449.4607">creates group chat</text></g><!--link UC3 to UC10--><g class="link" data-entity-1="ent0007" data-entity-2="ent0014" data-link-type="dependency" data-source-line="1002" id="lnk36"><path d="M512.055,1191.566 C537.045,1183.031 560.91,1169.801 577.5,1149.356 C641.67,1070.306 555.96,770.441 622.5,693.356 C699.84,603.761 832.5465,583.8246 930.9315,581.8746" fill="none" id="UC3-to-UC10" style="stroke:#000000;stroke-width:1.5;stroke-dasharray:10.5,10.5;"/><polygon fill="#000000" points="938.43,581.726,924.8138,575.9947,930.9315,581.8746,925.0515,587.9923,938.43,581.726" style="stroke:#000000;stroke-width:1.5;stroke-linejoin:miter;stroke-miterlimit:10;"/><text fill="#000000" font-family="Verdana" font-size="19.5" lengthAdjust="spacing" textLength="179.4419" x="661.5" y="582.4607">join request notify</text></g><!--link UC8 to UC11--><g class="link" data-entity-1="ent0012" data-entity-2="ent0015" data-link-type="dependency" data-source-line="1003" id="lnk37"><path d="M484.53,700.901 C526.26,708.566 576.885,717.566 622.5,724.856 C730.365,742.121 846.5759,758.2588 932.7809,769.7638" fill="none" id="UC8-to-UC11" style="stroke:#000000;stroke-width:1.5;stroke-dasharray:10.5,10.5;"/><polygon fill="#000000" points="940.215,770.756,927.6274,763.0228,932.7809,769.7638,926.0399,774.9173,940.215,770.756" style="stroke:#000000;stroke-width:1.5;stroke-linejoin:miter;stroke-miterlimit:10;"/><text fill="#000000" font-family="Verdana" font-size="19.5" lengthAdjust="spacing" textLength="196.4758" x="653.25" y="720.4607">updates rating stats</text></g><!--link UC7 to UC11--><g class="link" data-entity-1="ent0011" data-entity-2="ent0015" data-link-type="dependency" data-source-line="1004" id="lnk38"><path d="M499.305,923.891 C627.99,891.311 838.9543,837.9063 957.8893,807.8013" fill="none" id="UC7-to-UC11" style="stroke:#000000;stroke-width:1.5;stroke-dasharray:10.5,10.5;"/><polygon fill="#000000" points="965.16,805.961,950.6004,803.4571,957.8893,807.8013,953.545,815.0902,965.16,805.961" style="stroke:#000000;stroke-width:1.5;stroke-linejoin:miter;stroke-miterlimit:10;"/><text fill="#000000" font-family="Verdana" font-size="19.5" lengthAdjust="spacing" textLength="254.4426" x="624" y="825.4607">updates streak / heatmap</text></g><?plantuml-src RLJRJjj047tVhvZc0O4QBaaWWJvKWY2Gsb8G4NtYPM9Fx2thNNTt74YhIls8Vc6_f6F7JctI5yjdScREN8xpXbFA27A3sYhMR0WkYZY-A8o1Fxz-mtcU6nqXQsVXgh1H-O96ymfs7mB15ELnkoI_rFIyfrI8K2eC3awKChHWO0TU9ob3h3rLoIeyQPkZnmn2Yh5xrZQ11Pf0Ic74piETmHNv6jpw1At-li7dSIQDgh8OsaIqUfjs9OyNpcSz-A40Ya1HsLpldX8Tc3mSmYUNQFjeTw-acNdvutd1wLuFCC33TD1EcheiDyGocvqxzB4qANaXTvv37t29ZBuFngqtqvGOjalC27sKmWvySDh2DMOKQjgee-G9HMS7Rj1YGXtYSPieb_1kIJB6HnqzrLjgc2TjvhLtHIuLBszWcYBNb76R8fk0E_Bbkj169BDboDBj8R0N9yYupKoJpYxBLcjboSbTuFr46cx8fstobTTaOxYdRmK55luEp5oaqS2rnpojKyxQAPyTwqLjjr90o_PVu2taHVXtfwDsnXVn7Tnvjz2cNEACaPkT33eNhOm3bnZIwg2FTews3tFlC1O2zu5UokiskKFrKwdrfB2__xxoHmSEkt3KXUCkd7JXQHUUlH8wUeK7Icq-WqqphoF7Mv6JhSXeApBUYaosjKH_lRqQ3xjGAL67WuEg7ho3g79qWAIoOIGE5CAe9WoEXF6r_2BysXTWovklX7BQK0P2AVAuAkB52_874Sgx2cVoFqvWKNmIxwOYd66k_W80?></g></svg>